<svg width="11" height="8" viewBox="0 0 11 8" fill="none" xmlns="http://www.w3.org/2000/svg">
<path fill-rule="evenodd" clip-rule="evenodd" d="M1.47913 4.00033C1.47913 3.88183 1.5262 3.76818 1.60999 3.68439C1.69379 3.6006 1.80743 3.55352 1.92594 3.55352L9.96853 3.55352C10.087 3.55352 10.2007 3.60059 10.2845 3.68439C10.3683 3.76818 10.4153 3.88183 10.4153 4.00033C10.4153 4.11883 10.3683 4.23248 10.2845 4.31627C10.2007 4.40007 10.087 4.44714 9.96853 4.44714L1.92594 4.44714C1.80744 4.44714 1.69379 4.40007 1.60999 4.31628C1.5262 4.23248 1.47913 4.11883 1.47913 4.00033Z" fill="#07484A"/>
<path fill-rule="evenodd" clip-rule="evenodd" d="M0.715984 4.31652C0.674374 4.27502 0.641361 4.22571 0.618836 4.17143C0.596311 4.11714 0.584716 4.05895 0.584716 4.00018C0.584716 3.94141 0.596311 3.88322 0.618836 3.82893C0.641361 3.77465 0.674374 3.72534 0.715983 3.68384L3.39685 1.00297C3.48075 0.919075 3.59454 0.871941 3.71319 0.871941C3.83184 0.871941 3.94563 0.919075 4.02953 1.00297C4.11343 1.08687 4.16056 1.20066 4.16056 1.31932C4.16056 1.43797 4.11343 1.55176 4.02953 1.63566L1.66412 4.00018L4.02953 6.3647C4.11343 6.4486 4.16056 6.56239 4.16056 6.68104C4.16056 6.79969 4.11343 6.91348 4.02953 6.99738C3.94563 7.08128 3.83184 7.12842 3.71319 7.12842C3.59454 7.12842 3.48075 7.08128 3.39685 6.99738L0.715984 4.31652Z" fill="#07484A"/>
</svg>
