<svg width="8" height="11" viewBox="0 0 8 11" fill="none" xmlns="http://www.w3.org/2000/svg">
<path fill-rule="evenodd" clip-rule="evenodd" d="M3.99997 9.521C3.88147 9.521 3.76782 9.47392 3.68402 9.39013C3.60023 9.30634 3.55316 9.19269 3.55316 9.07419L3.55316 1.0316C3.55316 0.913095 3.60023 0.799446 3.68402 0.715653C3.76782 0.63186 3.88146 0.584786 3.99997 0.584786C4.11847 0.584785 4.23212 0.63186 4.31591 0.715652C4.3997 0.799446 4.44678 0.913095 4.44678 1.0316L4.44678 9.07419C4.44678 9.19269 4.3997 9.30634 4.31591 9.39013C4.23212 9.47392 4.11847 9.521 3.99997 9.521Z" fill="#07484A"/>
<path fill-rule="evenodd" clip-rule="evenodd" d="M4.31628 10.284C4.27477 10.3256 4.22547 10.3586 4.17118 10.3812C4.1169 10.4037 4.05871 10.4153 3.99994 10.4153C3.94116 10.4153 3.88297 10.4037 3.82869 10.3812C3.7744 10.3586 3.7251 10.3256 3.68359 10.284L1.00273 7.60315C0.918831 7.51925 0.871698 7.40546 0.871698 7.28681C0.871698 7.16816 0.918831 7.05437 1.00273 6.97047C1.08663 6.88657 1.20042 6.83944 1.31907 6.83944C1.43772 6.83944 1.55152 6.88657 1.63541 6.97047L3.99994 9.33588L6.36446 6.97047C6.44836 6.88657 6.56215 6.83944 6.6808 6.83944C6.79945 6.83944 6.91324 6.88657 6.99714 6.97047C7.08104 7.05437 7.12817 7.16816 7.12817 7.28681C7.12817 7.40546 7.08104 7.51925 6.99714 7.60315L4.31628 10.284Z" fill="#07484A"/>
</svg>
