<svg width="8" height="11" viewBox="0 0 8 11" fill="none" xmlns="http://www.w3.org/2000/svg">
<path fill-rule="evenodd" clip-rule="evenodd" d="M4.00003 1.479C4.11853 1.479 4.23218 1.52608 4.31598 1.60987C4.39977 1.69366 4.44684 1.80731 4.44684 1.92581L4.44685 9.9684C4.44685 10.0869 4.39977 10.2006 4.31598 10.2843C4.23218 10.3681 4.11854 10.4152 4.00003 10.4152C3.88153 10.4152 3.76789 10.3681 3.68409 10.2843C3.6003 10.2006 3.55322 10.0869 3.55322 9.9684L3.55322 1.92581C3.55322 1.80731 3.6003 1.69366 3.68409 1.60987C3.76788 1.52608 3.88153 1.479 4.00003 1.479Z" fill="#07484A"/>
<path fill-rule="evenodd" clip-rule="evenodd" d="M3.68372 0.715984C3.72523 0.674374 3.77453 0.641361 3.82882 0.618836C3.8831 0.596311 3.94129 0.584716 4.00006 0.584716C4.05884 0.584716 4.11703 0.596311 4.17131 0.618836C4.2256 0.641361 4.2749 0.674374 4.31641 0.715984L6.99727 3.39685C7.08117 3.48075 7.1283 3.59454 7.1283 3.71319C7.1283 3.83184 7.08117 3.94563 6.99727 4.02953C6.91337 4.11343 6.79958 4.16056 6.68093 4.16056C6.56228 4.16056 6.44849 4.11343 6.36459 4.02953L4.00006 1.66412L1.63554 4.02953C1.55164 4.11343 1.43785 4.16056 1.3192 4.16056C1.20055 4.16056 1.08676 4.11343 1.00286 4.02953C0.918961 3.94563 0.871827 3.83184 0.871827 3.71319C0.871827 3.59454 0.918961 3.48075 1.00286 3.39685L3.68372 0.715984Z" fill="#07484A"/>
</svg>
