<svg width="21" height="14" viewBox="0 0 21 14" fill="none" xmlns="http://www.w3.org/2000/svg">
<path fill-rule="evenodd" clip-rule="evenodd" d="M13.5552 13.2273C13.4688 13.141 13.4002 13.0386 13.3534 12.9258C13.3066 12.813 13.2825 12.6921 13.2825 12.57C13.2825 12.4479 13.3066 12.3269 13.3534 12.2142C13.4002 12.1014 13.4688 11.9989 13.5552 11.9127L18.47 6.99976L13.5552 2.08683C13.3809 1.9125 13.283 1.67607 13.283 1.42954C13.283 1.18301 13.3809 0.946579 13.5552 0.772256C13.7295 0.597933 13.966 0.5 14.2125 0.5C14.459 0.5 14.6955 0.597933 14.8698 0.772256L20.44 6.34247C20.5265 6.42871 20.595 6.53116 20.6418 6.64394C20.6887 6.75673 20.7127 6.87764 20.7127 6.99976C20.7127 7.12187 20.6887 7.24278 20.6418 7.35557C20.595 7.46836 20.5265 7.5708 20.44 7.65704L14.8698 13.2273C14.7835 13.3137 14.6811 13.3823 14.5683 13.4291C14.4555 13.4759 14.3346 13.5 14.2125 13.5C14.0904 13.5 13.9695 13.4759 13.8567 13.4291C13.7439 13.3823 13.6415 13.3137 13.5552 13.2273Z" fill="white"/>
<path fill-rule="evenodd" clip-rule="evenodd" d="M0.287109 6.99985C0.287109 6.75363 0.38492 6.5175 0.559023 6.3434C0.733126 6.16929 0.96926 6.07148 1.21548 6.07148L17.9261 6.07148C18.1723 6.07148 18.4085 6.16929 18.5826 6.3434C18.7567 6.5175 18.8545 6.75363 18.8545 6.99985C18.8545 7.24607 18.7567 7.48221 18.5826 7.65631C18.4085 7.83041 18.1723 7.92822 17.9261 7.92822L1.21548 7.92822C0.96926 7.92822 0.733126 7.83041 0.559023 7.65631C0.38492 7.48221 0.287109 7.24607 0.287109 6.99985Z" fill="white"/>
</svg>
