<svg width="11" height="8" viewBox="0 0 11 8" fill="none" xmlns="http://www.w3.org/2000/svg">
<path fill-rule="evenodd" clip-rule="evenodd" d="M9.52087 3.99991C9.52087 4.11841 9.4738 4.23206 9.39001 4.31585C9.30621 4.39965 9.19257 4.44672 9.07406 4.44672L1.03147 4.44672C0.912973 4.44672 0.799324 4.39965 0.71553 4.31586C0.631738 4.23206 0.584663 4.11841 0.584663 3.99991C0.584663 3.88141 0.631738 3.76776 0.71553 3.68397C0.799324 3.60018 0.912972 3.5531 1.03147 3.5531L9.07406 3.5531C9.19256 3.5531 9.30621 3.60018 9.39001 3.68397C9.4738 3.76776 9.52087 3.88141 9.52087 3.99991Z" fill="#07484A"/>
<path fill-rule="evenodd" clip-rule="evenodd" d="M10.284 3.68372C10.3256 3.72523 10.3586 3.77453 10.3812 3.82882C10.4037 3.8831 10.4153 3.94129 10.4153 4.00006C10.4153 4.05884 10.4037 4.11703 10.3812 4.17131C10.3586 4.2256 10.3256 4.2749 10.284 4.31641L7.60315 6.99727C7.51925 7.08117 7.40546 7.1283 7.28681 7.1283C7.16816 7.1283 7.05437 7.08117 6.97047 6.99727C6.88657 6.91337 6.83944 6.79958 6.83944 6.68093C6.83944 6.56228 6.88657 6.44848 6.97047 6.36459L9.33588 4.00006L6.97047 1.63554C6.88657 1.55164 6.83944 1.43785 6.83944 1.3192C6.83944 1.20055 6.88657 1.08676 6.97047 1.00286C7.05437 0.918961 7.16816 0.871827 7.28681 0.871827C7.40546 0.871827 7.51925 0.918961 7.60315 1.00286L10.284 3.68372Z" fill="#07484A"/>
</svg>
