<svg width="35" height="34" fill="none" xmlns="http://www.w3.org/2000/svg"><path d="m29.485 19.57 1.478-8.19a2.339 2.339 0 0 0-.498-1.903 2.306 2.306 0 0 0-1.769-.834H9.761l-.494-2.737a2.324 2.324 0 0 0-.79-1.367A2.292 2.292 0 0 0 7 4H5.382c-.366 0-.718.147-.977.408a1.398 1.398 0 0 0 0 1.97c.259.26.61.408.977.408h1.234L9.623 23.45c.014.076.032.15.052.223a3.74 3.74 0 0 0 .015 5.235 3.656 3.656 0 0 0 5.195.015 3.739 3.739 0 0 0 .977-3.567h6.684a3.742 3.742 0 0 0 .13 2.265 3.71 3.71 0 0 0 1.412 1.766 3.665 3.665 0 0 0 4.284-.166 3.716 3.716 0 0 0 1.273-1.87 3.742 3.742 0 0 0-.043-2.268 3.712 3.712 0 0 0-1.344-1.82 3.667 3.667 0 0 0-2.143-.693H12.274l-.335-1.857h16.186c.324 0 .637-.114.886-.323.248-.21.416-.5.474-.82Zm-16.27 6.715a.934.934 0 0 1-.57.858.914.914 0 0 1-1.004-.201.93.93 0 0 1 .652-1.585c.244 0 .479.098.651.272.173.174.27.41.27.656Zm12.9.929a.917.917 0 0 1-.852-.573.935.935 0 0 1 .2-1.012.92.92 0 0 1 1.573.656.934.934 0 0 1-.27.657.92.92 0 0 1-.651.272Zm-14.679-9.286-1.172-6.5h17.88l-1.173 6.5H11.436Z" fill="#FDFBF8"/></svg>