<svg width="27" height="28" fill="none" xmlns="http://www.w3.org/2000/svg"><path fill-rule="evenodd" clip-rule="evenodd" d="M5.022 3.2h21.303c.373 0 .675.302.675.675v.675a6.427 6.427 0 0 1-.878 3.186l-3.172 5.576a3.969 3.969 0 0 1-3.389 2.038h-8.41a3.697 3.697 0 0 1-.864-.121l-1.35 2.821h14.688c.373 0 .675.302.675.675v1.35a.675.675 0 0 1-.675.675H6.75a1.026 1.026 0 0 1-.904-.5l-.298-.512a1.04 1.04 0 0 1 0-.959l2.511-4.995a2.955 2.955 0 0 1-.364-.473L1.917 3.2H.675A.675.675 0 0 1 0 2.525v-1.35C0 .802.302.5.675.5h1.242a2.7 2.7 0 0 1 2.349 1.35l.756 1.35ZM8.1 22.1a2.7 2.7 0 1 0 0 5.4 2.7 2.7 0 0 0 0-5.4Zm16.2 2.7a2.7 2.7 0 1 1-5.4 0 2.7 2.7 0 0 1 5.4 0Z" fill="#07484A"/></svg>