<svg width="15" height="9" viewBox="0 0 15 9" fill="none" xmlns="http://www.w3.org/2000/svg">
<path d="M7.00125 7.99942C6.7676 7.99988 6.54116 7.9185 6.36125 7.76942L0.361252 2.76942C0.157036 2.59968 0.0286112 2.35577 0.0042315 2.09134C-0.0201482 1.82692 0.0615137 1.56364 0.231252 1.35942C0.400991 1.1552 0.644902 1.02678 0.909329 1.0024C1.17375 0.978021 1.43704 1.05968 1.64125 1.22942L7.00125 5.70942L12.3613 1.38942C12.4635 1.30636 12.5812 1.24432 12.7076 1.20689C12.8339 1.16946 12.9664 1.15737 13.0974 1.17131C13.2285 1.18524 13.3554 1.22494 13.4711 1.28812C13.5867 1.35129 13.6887 1.43669 13.7713 1.53942C13.8628 1.64224 13.9322 1.76287 13.975 1.89374C14.0178 2.02462 14.0331 2.16292 14.0199 2.29998C14.0068 2.43704 13.9655 2.56992 13.8986 2.69027C13.8317 2.81063 13.7407 2.91588 13.6313 2.99942L7.63125 7.82942C7.44617 7.95494 7.22435 8.01479 7.00125 7.99942Z" fill="black"/>
</svg>
