<svg width="27" height="28" fill="none" xmlns="http://www.w3.org/2000/svg"><path fill-rule="evenodd" clip-rule="evenodd" d="m20.809 19.184 5.998 6.007a.751.751 0 0 1-.03 1.036l-1.05 1.05a.75.75 0 0 1-1.064 0l-5.999-6.005a3.898 3.898 0 0 1-.45-.54L17.09 19.23a10.49 10.49 0 0 1-6.553 2.297 10.5 10.5 0 0 1-10.27-8.162A10.514 10.514 0 0 1 5.96 1.54a10.49 10.49 0 0 1 12.774 2.956 10.52 10.52 0 0 1-.069 13.127l1.5 1.036c.234.15.45.326.645.526ZM3.037 11.017c0 4.146 3.357 7.508 7.498 7.508a7.494 7.494 0 0 0 5.303-2.2 7.513 7.513 0 0 0 2.196-5.308c0-4.146-3.357-7.507-7.499-7.507-4.141 0-7.498 3.36-7.498 7.507Z" fill="#07484A"/></svg>