<svg width="32" height="26" viewBox="0 0 32 26" fill="none" xmlns="http://www.w3.org/2000/svg">
<path fill-rule="evenodd" clip-rule="evenodd" d="M30.6389 4.38878H1.36111C0.885533 4.38878 0.5 4.00325 0.5 3.52767V1.80545C0.5 1.32987 0.885533 0.944336 1.36111 0.944336H30.6389C31.1145 0.944336 31.5 1.32987 31.5 1.80545V3.52767C31.5 4.00325 31.1145 4.38878 30.6389 4.38878ZM31.5 13.8612V12.1389C31.5 11.6634 31.1145 11.2778 30.6389 11.2778H1.36111C0.885533 11.2778 0.5 11.6634 0.5 12.1389V13.8612C0.5 14.3367 0.885533 14.7223 1.36111 14.7223H30.6389C31.1145 14.7223 31.5 14.3367 31.5 13.8612ZM31.5 22.4722V24.1944C31.5 24.67 31.1145 25.0555 30.6389 25.0555H1.36111C0.885533 25.0555 0.5 24.67 0.5 24.1944V22.4722C0.5 21.9966 0.885533 21.611 1.36111 21.611H30.6389C31.1145 21.611 31.5 21.9966 31.5 22.4722Z" fill="white"/>
</svg>
