<svg width="18" height="18" fill="none" xmlns="http://www.w3.org/2000/svg"><path d="M12.85.85 14.3 2.3l-2.18 2.16c-.39.39-.39 1.03 0 1.42.39.39 1.03.39 1.42 0L15.7 3.7l1.45 1.45a.5.5 0 0 0 .85-.36V.5c0-.28-.22-.5-.5-.5h-4.29a.5.5 0 0 0-.36.85Zm-12 4.3L2.3 3.7l2.16 2.18c.39.39 1.03.39 1.42 0 .39-.39.39-1.03 0-1.42L3.7 2.3 5.15.85A.5.5 0 0 0 4.79 0H.5C.22 0 0 .22 0 .5v4.29c0 .45.54.67.85.36Zm4.3 12L3.7 15.7l2.18-2.16c.39-.39.39-1.03 0-1.42-.39-.39-1.03-.39-1.42 0L2.3 14.3.85 12.85a.5.5 0 0 0-.85.36v4.29c0 .28.22.5.5.5h4.29a.5.5 0 0 0 .36-.85Zm12-4.3L15.7 14.3l-2.16-2.18c-.39-.39-1.03-.39-1.42 0-.39.39-.39 1.03 0 1.42l2.18 2.16-1.45 1.45a.5.5 0 0 0 .36.85h4.29c.28 0 .5-.22.5-.5v-4.29a.5.5 0 0 0-.85-.36Z" fill="#FDFBF8"/></svg>